# xmcd
#
# Track frame offsets:
#	150
#	11228
#	23709
#	41570
#	50815
#	62141
#	78208
#	87927
#	102577
#	114877
#	127708
#	140006
#	156279
#	170778
#	187241
#	200820
#	217323
#	235610
#
# Disc length: 3369 seconds
#
# Revision: 0
# Processed by: cddbd v1.4PL0 Copyright (c) Steve Scherf et al.
# Submitted via: dBpowerAMP V4.0
#
DISCID=080d2712
DTITLE=Rod Stewart - The sixties sessions
DYEAR=1900
DGENRE=rock blues
TTITLE0=Aint That Loving You Baby
TTITLE1=Moppers Blues
TTITLE2=Don't You Tell Nobody
TTITLE3=Keep Your Hands Off Her
TTITLE4=Just LIke I Treat You
TTITLE5=Can I Get A Witness
TTITLE6=Baby Take Me
TTITLE7=Bright Lights, Big City
TTITLE8=The Day Will Come
TTITLE9=Why Does It Go On
TTITLE10=Shake
TTITLE11=I Just Got Some
TTITLE12=So Much To Say
TTITLE13=Little Miss Understood
TTITLE14=Come Home Baby
TTITLE15=In A Broken Dream
TTITLE16=The Blues
TTITLE17=Cloud Nine
EXTD=
EXTT0=
EXTT1=
EXTT2=
EXTT3=
EXTT4=
EXTT5=
EXTT6=
EXTT7=
EXTT8=
EXTT9=
EXTT10=
EXTT11=
EXTT12=
EXTT13=
EXTT14=
EXTT15=
EXTT16=
EXTT17=
PLAYORDER=
